<svg width="31" height="60" viewBox="0 0 31 60" fill="none" xmlns="http://www.w3.org/2000/svg">
<path d="M20.725 20.876C20.725 10.0222 11.9262 1.22339 1.07235 1.22339V1.22339V29.668H20.725V20.876Z" fill="#CBECFF" stroke="#CBECFF" stroke-width="0.805851"/>
<rect width="19.6526" height="1.1217" transform="matrix(-1 0 0 1 20.7249 29.6681)" fill="#CBECFF" stroke="#CBECFF" stroke-width="0.805851"/>
<path d="M1.07227 30.7897V59.234C5.83191 59.234 10.1961 57.5415 13.5967 54.7262C16.989 56.9863 22.4277 59.136 29 57.941C27.1896 57.1651 20.2082 52.5106 20.4668 43.2018C20.4361 43.244 20.4015 43.2835 20.3682 43.3239C20.6017 42.1123 20.7256 40.8614 20.7256 39.5817V30.7897H1.07227Z" fill="#CBECFF"/>
<path d="M1.07227 30.7897H0.66934V30.3867H1.07227V30.7897ZM1.07227 59.234V59.6369H0.66934V59.234H1.07227ZM13.5967 54.7262L13.3397 54.4158L13.5706 54.2247L13.8201 54.3909L13.5967 54.7262ZM29 57.941L29.1587 57.5707L30.389 58.098L29.0721 58.3375L29 57.941ZM20.4668 43.2018L20.1409 42.9648L20.9057 41.9133L20.8696 43.213L20.4668 43.2018ZM20.3682 43.3239L20.6791 43.5801L19.9725 43.2476L20.3682 43.3239ZM20.7256 39.5817L21.1285 39.5817L21.1285 39.5817L20.7256 39.5817ZM20.7256 30.7897V30.3867H21.1285V30.7897H20.7256ZM1.07227 30.7897H1.47519V59.234H1.07227H0.66934V30.7897H1.07227ZM1.07227 59.234V58.8311C5.73465 58.8311 10.0087 57.1736 13.3397 54.4158L13.5967 54.7262L13.8536 55.0366C10.3835 57.9095 5.92917 59.6369 1.07227 59.6369V59.234ZM13.5967 54.7262L13.8201 54.3909C17.1501 56.6094 22.4841 58.7162 28.9279 57.5446L29 57.941L29.0721 58.3375C22.3714 59.5558 16.828 57.3631 13.3733 55.0615L13.5967 54.7262ZM29 57.941L28.8413 58.3114C27.8744 57.8969 25.6231 56.4983 23.6429 54.0229C21.6548 51.5377 19.9316 47.9562 20.064 43.1906L20.4668 43.2018L20.8696 43.213C20.7434 47.7562 22.3816 51.1563 24.2722 53.5195C26.1706 55.8926 28.3153 57.2092 29.1587 57.5707L29 57.941ZM20.4668 43.2018L20.7927 43.4388C20.7524 43.4942 20.7017 43.5527 20.6791 43.5801L20.3682 43.3239L20.0572 43.0676C20.1012 43.0142 20.1198 42.9939 20.1409 42.9648L20.4668 43.2018ZM20.3682 43.3239L19.9725 43.2476C20.2013 42.0607 20.3227 40.8353 20.3227 39.5817L20.7256 39.5817L21.1285 39.5817C21.1285 40.8874 21.0021 42.1639 20.7638 43.4001L20.3682 43.3239ZM20.7256 39.5817H20.3227V30.7897H20.7256H21.1285V39.5817H20.7256ZM20.7256 30.7897V31.1926H1.07227V30.7897V30.3867H20.7256V30.7897Z" fill="#CBECFF"/>
</svg>
